<svg xmlns="http://www.w3.org/2000/svg" viewBox="0 0 80 80" fill="none">
  <circle cx="40" cy="40" r="40" fill="#EDE7F0"/>
  <!-- Hair -->
  <path d="M28 24c0-8 5.5-13 12-13s12 5 12 13c1 0 2 1 2 3 0 1-1 2-2 2 0 0 0-11-12-11S28 29 28 29c-1 0-2-1-2-2 0-2 1-3 2-3z" fill="#4A235A"/>
  <!-- Face -->
  <circle cx="40" cy="31" r="12" fill="#FFD5C2"/>
  <!-- Eyes -->
  <ellipse cx="35.5" cy="30" rx="1.5" ry="1.8" fill="#4A235A"/>
  <ellipse cx="44.5" cy="30" rx="1.5" ry="1.8" fill="#4A235A"/>
  <!-- Eyebrows -->
  <path d="M33 27h5" stroke="#4A235A" stroke-width="1" stroke-linecap="round"/>
  <path d="M42 27h5" stroke="#4A235A" stroke-width="1" stroke-linecap="round"/>
  <!-- Smile -->
  <path d="M37 35c1.5 1.5 4 1.5 5.5 0" stroke="#C97B63" stroke-width="1" stroke-linecap="round" fill="none"/>
  <!-- Body -->
  <path d="M16 72c0-13.3 10.7-24 24-24s24 10.7 24 24v8H16v-8z" fill="#663259"/>
  <!-- Collar/Tie -->
  <path d="M37 48l3 8 3-8" fill="#4A235A"/>
  <path d="M33 48h14" stroke="#4A235A" stroke-width="1.5"/>
</svg>
