<svg xmlns="http://www.w3.org/2000/svg" viewBox="0 0 80 80" fill="none">
  <circle cx="40" cy="40" r="40" fill="#F9E8E8"/>
  <circle cx="40" cy="30" r="14" fill="#F97171"/>
  <path d="M40 16c-7.7 0-14 6.3-14 14s6.3 14 14 14 14-6.3 14-14-6.3-14-14-14z" fill="#F97171"/>
  <!-- Hair -->
  <path d="M26 28c0-9 6-16 14-16s14 7 14 16c0 2-1 4-2 5 0-8-5-14-12-14S28 25 28 33c-1-1-2-3-2-5z" fill="#4A235A"/>
  <path d="M24 32c-1 3-1 7 0 10 1-3 2-6 2-10h-2z" fill="#4A235A"/>
  <path d="M56 32c1 3 1 7 0 10-1-3-2-6-2-10h2z" fill="#4A235A"/>
  <!-- Face -->
  <circle cx="40" cy="30" r="12" fill="#FFD5C2"/>
  <!-- Eyes -->
  <ellipse cx="35.5" cy="29" rx="1.5" ry="2" fill="#4A235A"/>
  <ellipse cx="44.5" cy="29" rx="1.5" ry="2" fill="#4A235A"/>
  <!-- Eyelashes -->
  <path d="M33.5 27c.5-.8 1.2-1.2 2-1.2" stroke="#4A235A" stroke-width=".6" fill="none"/>
  <path d="M46.5 27c-.5-.8-1.2-1.2-2-1.2" stroke="#4A235A" stroke-width=".6" fill="none"/>
  <!-- Blush -->
  <circle cx="33" cy="32" r="2.5" fill="#FFB5B5" opacity=".4"/>
  <circle cx="47" cy="32" r="2.5" fill="#FFB5B5" opacity=".4"/>
  <!-- Smile -->
  <path d="M37 34c1.5 2 4 2 5.5 0" stroke="#E05A5A" stroke-width="1" stroke-linecap="round" fill="none"/>
  <!-- Body -->
  <path d="M16 72c0-13.3 10.7-24 24-24s24 10.7 24 24v8H16v-8z" fill="#F97171"/>
  <!-- Collar -->
  <path d="M32 48l8 6 8-6" stroke="#E05A5A" stroke-width="1.5" fill="none"/>
</svg>
